{
  "accessors": [
    {
      "bufferView": 2,
      "componentType": 5126,
      "count": 11792,
      "max": [
        -0.19353100657463074,
        0.21342000365257263,
        6.845513820648193
      ],
      "min": [
        -2.2053298950195313,
        -0.21342000365257263,
        1.5601119995117188
      ],
      "type": "VEC3"
    },
    {
      "bufferView": 2,
      "byteOffset": 141504,
      "componentType": 5126,
      "count": 11792,
      "max": [
        1.0,
        0.9978015422821045,
        0.9974105954170227
      ],
      "min": [
        -1.0,
        -0.9978015422821045,
        -0.9974560141563416
      ],
      "type": "VEC3"
    },
    {
      "bufferView": 3,
      "componentType": 5126,
      "count": 11792,
      "max": [
        0.999842643737793,
        0.9978451132774353,
        0.9962611198425293,
        1.0
      ],
      "min": [
        -1.0,
        -0.997838020324707,
        -0.9559597969055176,
        1.0
      ],
      "type": "VEC4"
    },
    {
      "bufferView": 1,
      "componentType": 5126,
      "count": 11792,
      "max": [
        3.967672109603882,
        0.9763929843902588
      ],
      "min": [
        3.0,
        -0.0
      ],
      "type": "VEC2"
    },
    {
      "bufferView": 0,
      "componentType": 5125,
      "count": 17712,
      "type": "SCALAR"
    },
    {
      "bufferView": 2,
      "byteOffset": 283008,
      "componentType": 5126,
      "count": 14114,
      "max": [
        2.073390007019043,
        0.5146909952163696,
        8.218392372131348
      ],
      "min": [
        -1.8194199800491333,
        -0.5146909952163696,
        0.10219500213861465
      ],
      "type": "VEC3"
    },
    {
      "bufferView": 2,
      "byteOffset": 452376,
      "componentType": 5126,
      "count": 14114,
      "max": [
        0.9999980926513672,
        1.0,
        1.0
      ],
      "min": [
        -0.9999980926513672,
        -1.0,
        -1.0
      ],
      "type": "VEC3"
    },
    {
      "bufferView": 3,
      "byteOffset": 188672,
      "componentType": 5126,
      "count": 14114,
      "max": [
        1.0,
        1.0,
        1.0,
        1.0
      ],
      "min": [
        -1.0,
        -1.0,
        -0.9999946355819702,
        -1.0
      ],
      "type": "VEC4"
    },
    {
      "bufferView": 1,
      "byteOffset": 94336,
      "componentType": 5126,
      "count": 14114,
      "max": [
        3.974782943725586,
        1.0
      ],
      "min": [
        3.0,
        0.0
      ],
      "type": "VEC2"
    },
    {
      "bufferView": 0,
      "byteOffset": 70848,
      "componentType": 5125,
      "count": 61650,
      "type": "SCALAR"
    },
    {
      "bufferView": 2,
      "byteOffset": 621744,
      "componentType": 5126,
      "count": 5042,
      "max": [
        1.0374079942703247,
        1.0374079942703247,
        6.7902679443359375
      ],
      "min": [
        -1.0374079942703247,
        -1.0374079942703247,
        0.01002699974924326
      ],
      "type": "VEC3"
    },
    {
      "bufferView": 2,
      "byteOffset": 682248,
      "componentType": 5126,
      "count": 5042,
      "max": [
        1.0,
        1.0,
        1.0
      ],
      "min": [
        -1.0,
        -1.0,
        -1.0
      ],
      "type": "VEC3"
    },
    {
      "bufferView": 3,
      "byteOffset": 414496,
      "componentType": 5126,
      "count": 5042,
      "max": [
        1.0,
        0.9999997615814209,
        0.999987006187439,
        1.0
      ],
      "min": [
        -1.0,
        -1.0,
        -1.0,
        1.0
      ],
      "type": "VEC4"
    },
    {
      "bufferView": 1,
      "byteOffset": 207248,
      "componentType": 5126,
      "count": 5042,
      "max": [
        3.0,
        0.9647700190544128
      ],
      "min": [
        2.0,
        0.0
      ],
      "type": "VEC2"
    },
    {
      "bufferView": 0,
      "byteOffset": 317448,
      "componentType": 5125,
      "count": 21342,
      "type": "SCALAR"
    },
    {
      "bufferView": 2,
      "byteOffset": 742752,
      "componentType": 5126,
      "count": 1610,
      "max": [
        -0.4050830006599426,
        -0.48980599641799927,
        5.629148960113525
      ],
      "min": [
        -1.1141849756240845,
        -0.9898260235786438,
        4.0873870849609375
      ],
      "type": "VEC3"
    },
    {
      "bufferView": 2,
      "byteOffset": 762072,
      "componentType": 5126,
      "count": 1610,
      "max": [
        0.9998486638069153,
        0.999846875667572,
        0.9914786219596863
      ],
      "min": [
        -1.0,
        -0.999846875667572,
        -0.9835342168807983
      ],
      "type": "VEC3"
    },
    {
      "bufferView": 3,
      "byteOffset": 495168,
      "componentType": 5126,
      "count": 1610,
      "max": [
        0.9916932582855225,
        1.0,
        0.9833177328109741,
        1.0
      ],
      "min": [
        -0.989427387714386,
        -1.0,
        -0.9936179518699646,
        1.0
      ],
      "type": "VEC4"
    },
    {
      "bufferView": 1,
      "byteOffset": 247584,
      "componentType": 5126,
      "count": 1610,
      "max": [
        1.9931529760360718,
        0.9457370042800903
      ],
      "min": [
        1.0507429838180542,
        0.1545410007238388
      ],
      "type": "VEC2"
    },
    {
      "bufferView": 0,
      "byteOffset": 402816,
      "componentType": 5125,
      "count": 2532,
      "type": "SCALAR"
    },
    {
      "bufferView": 2,
      "byteOffset": 781392,
      "componentType": 5126,
      "count": 17502,
      "max": [
        1.1178369522094727,
        1.1178369522094727,
        6.018763065338135
      ],
      "min": [
        -1.5427089929580688,
        -1.1178369522094727,
        -0.10210300236940384
      ],
      "type": "VEC3"
    },
    {
      "bufferView": 2,
      "byteOffset": 991416,
      "componentType": 5126,
      "count": 17502,
      "max": [
        0.9999351501464844,
        1.0,
        1.0
      ],
      "min": [
        -0.9999496936798096,
        -1.0,
        -1.0
      ],
      "type": "VEC3"
    },
    {
      "bufferView": 3,
      "byteOffset": 520928,
      "componentType": 5126,
      "count": 17502,
      "max": [
        0.9999407529830933,
        0.9997544884681702,
        0.999910831451416,
        1.0
      ],
      "min": [
        -0.9997618794441223,
        -0.9999979734420776,
        -1.0,
        -1.0
      ],
      "type": "VEC4"
    },
    {
      "bufferView": 1,
      "byteOffset": 260464,
      "componentType": 5126,
      "count": 17502,
      "max": [
        2.0,
        0.9818840026855469
      ],
      "min": [
        1.0,
        -0.0
      ],
      "type": "VEC2"
    },
    {
      "bufferView": 0,
      "byteOffset": 412944,
      "componentType": 5125,
      "count": 87552,
      "type": "SCALAR"
    }
  ],
  "asset": {
    "extras": {
      "author": "Azamat Blender 3d (https://sketchfab.com/azamata2019)",
      "license": "CC-BY-4.0 (http://creativecommons.org/licenses/by/4.0/)",
      "source": "https://sketchfab.com/3d-models/fire-extinguisher-90c60e3bc9fb4fe9966e4cea3aac0e30",
      "title": "fire extinguisher"
    },
    "generator": "Sketchfab-15.34.0",
    "version": "2.0"
  },
  "bufferViews": [
    {
      "buffer": 0,
      "byteLength": 763152,
      "name": "floatBufferViews",
      "target": 34963
    },
    {
      "buffer": 0,
      "byteLength": 400480,
      "byteOffset": 763152,
      "byteStride": 8,
      "name": "floatBufferViews",
      "target": 34962
    },
    {
      "buffer": 0,
      "byteLength": 1201440,
      "byteOffset": 1163632,
      "byteStride": 12,
      "name": "floatBufferViews",
      "target": 34962
    },
    {
      "buffer": 0,
      "byteLength": 800960,
      "byteOffset": 2365072,
      "byteStride": 16,
      "name": "floatBufferViews",
      "target": 34962
    }
  ],
  "buffers": [
    {
      "byteLength": 3166032,
      "uri": "scene.bin"
    }
  ],
  "images": [
    {
      "uri": "textures/Material_baseColor.png"
    },
    {
      "uri": "textures/Material_metallicRoughness.png"
    },
    {
      "uri": "textures/Material_normal.png"
    },
    {
      "uri": "textures/Material.001_baseColor.png"
    },
    {
      "uri": "textures/Material.001_metallicRoughness.png"
    },
    {
      "uri": "textures/Material.001_normal.png"
    },
    {
      "uri": "textures/Material.002_baseColor.png"
    },
    {
      "uri": "textures/Material.002_metallicRoughness.png"
    },
    {
      "uri": "textures/Material.002_normal.png"
    }
  ],
  "materials": [
    {
      "doubleSided": true,
      "name": "Material",
      "normalTexture": {
        "index": 2
      },
      "pbrMetallicRoughness": {
        "baseColorTexture": {
          "index": 0
        },
        "metallicRoughnessTexture": {
          "index": 1
        }
      }
    },
    {
      "doubleSided": true,
      "name": "Material.001",
      "normalTexture": {
        "index": 5
      },
      "pbrMetallicRoughness": {
        "baseColorTexture": {
          "index": 3
        },
        "metallicRoughnessTexture": {
          "index": 4
        }
      }
    },
    {
      "doubleSided": true,
      "name": "Material.002",
      "normalTexture": {
        "index": 8
      },
      "pbrMetallicRoughness": {
        "baseColorTexture": {
          "index": 6
        },
        "metallicRoughnessTexture": {
          "index": 7
        }
      }
    }
  ],
  "meshes": [
    {
      "name": "Object_0",
      "primitives": [
        {
          "attributes": {
            "NORMAL": 1,
            "POSITION": 0,
            "TANGENT": 2,
            "TEXCOORD_0": 3
          },
          "indices": 4,
          "material": 0,
          "mode": 4
        }
      ]
    },
    {
      "name": "Object_1",
      "primitives": [
        {
          "attributes": {
            "NORMAL": 6,
            "POSITION": 5,
            "TANGENT": 7,
            "TEXCOORD_0": 8
          },
          "indices": 9,
          "material": 0,
          "mode": 4
        }
      ]
    },
    {
      "name": "Object_2",
      "primitives": [
        {
          "attributes": {
            "NORMAL": 11,
            "POSITION": 10,
            "TANGENT": 12,
            "TEXCOORD_0": 13
          },
          "indices": 14,
          "material": 1,
          "mode": 4
        }
      ]
    },
    {
      "name": "Object_3",
      "primitives": [
        {
          "attributes": {
            "NORMAL": 16,
            "POSITION": 15,
            "TANGENT": 17,
            "TEXCOORD_0": 18
          },
          "indices": 19,
          "material": 2,
          "mode": 4
        }
      ]
    },
    {
      "name": "Object_4",
      "primitives": [
        {
          "attributes": {
            "NORMAL": 21,
            "POSITION": 20,
            "TANGENT": 22,
            "TEXCOORD_0": 23
          },
          "indices": 24,
          "material": 2,
          "mode": 4
        }
      ]
    }
  ],
  "nodes": [
    {
      "children": [
        1
      ],
      "matrix": [
        1.0,
        0.0,
        0.0,
        0.0,
        0.0,
        2.220446049250313e-16,
        -1.0,
        0.0,
        0.0,
        1.0,
        2.220446049250313e-16,
        0.0,
        0.0,
        0.0,
        0.0,
        1.0
      ],
      "name": "Sketchfab_model"
    },
    {
      "children": [
        2,
        3,
        4,
        5,
        6
      ],
      "name": "untitled.obj.cleaner.materialmerger.gles"
    },
    {
      "mesh": 0,
      "name": "Object_2"
    },
    {
      "mesh": 1,
      "name": "Object_3"
    },
    {
      "mesh": 2,
      "name": "Object_4"
    },
    {
      "mesh": 3,
      "name": "Object_5"
    },
    {
      "mesh": 4,
      "name": "Object_6"
    }
  ],
  "samplers": [
    {
      "magFilter": 9729,
      "minFilter": 9987,
      "wrapS": 10497,
      "wrapT": 10497
    }
  ],
  "scene": 0,
  "scenes": [
    {
      "name": "Sketchfab_Scene",
      "nodes": [
        0
      ]
    }
  ],
  "textures": [
    {
      "sampler": 0,
      "source": 0
    },
    {
      "sampler": 0,
      "source": 1
    },
    {
      "sampler": 0,
      "source": 2
    },
    {
      "sampler": 0,
      "source": 3
    },
    {
      "sampler": 0,
      "source": 4
    },
    {
      "sampler": 0,
      "source": 5
    },
    {
      "sampler": 0,
      "source": 6
    },
    {
      "sampler": 0,
      "source": 7
    },
    {
      "sampler": 0,
      "source": 8
    }
  ]
}
