{
  "accessors": [
    {
      "bufferView": 2,
      "componentType": 5126,
      "count": 580,
      "max": [
        90.0,
        110.0,
        10.886229515075684
      ],
      "min": [
        -90.0,
        -110.0,
        -10.886229515075684
      ],
      "type": "VEC3"
    },
    {
      "bufferView": 2,
      "byteOffset": 6960,
      "componentType": 5126,
      "count": 580,
      "max": [
        1.0,
        1.0,
        1.0
      ],
      "min": [
        -1.0,
        -1.0,
        -1.0
      ],
      "type": "VEC3"
    },
    {
      "bufferView": 3,
      "componentType": 5126,
      "count": 580,
      "max": [
        1.0,
        0.9296279549598694,
        1.0,
        1.0
      ],
      "min": [
        -1.0,
        -1.0,
        -1.0,
        1.0
      ],
      "type": "VEC4"
    },
    {
      "bufferView": 1,
      "componentType": 5126,
      "count": 580,
      "max": [
        0.9967578053474426,
        0.9957307577133179
      ],
      "min": [
        0.004269224125891924,
        0.004269242286682129
      ],
      "type": "VEC2"
    },
    {
      "bufferView": 0,
      "componentType": 5125,
      "count": 1278,
      "type": "SCALAR"
    },
    {
      "bufferView": 2,
      "byteOffset": 13920,
      "componentType": 5126,
      "count": 24,
      "max": [
        37.602413177490234,
        97.08378601074219,
        2.2779884338378906
      ],
      "min": [
        -37.602413177490234,
        -97.08378601074219,
        -2.2779884338378906
      ],
      "type": "VEC3"
    },
    {
      "bufferView": 2,
      "byteOffset": 14208,
      "componentType": 5126,
      "count": 24,
      "max": [
        1.0,
        1.0,
        1.0
      ],
      "min": [
        -1.0,
        -1.0,
        -1.0
      ],
      "type": "VEC3"
    },
    {
      "bufferView": 3,
      "byteOffset": 9280,
      "componentType": 5126,
      "count": 24,
      "max": [
        1.0,
        0.0,
        1.0,
        1.0
      ],
      "min": [
        -1.0,
        0.0,
        -1.0,
        1.0
      ],
      "type": "VEC4"
    },
    {
      "bufferView": 1,
      "byteOffset": 4640,
      "componentType": 5126,
      "count": 24,
      "max": [
        0.7612993121147156,
        0.9957307577133179
      ],
      "min": [
        0.004269224125891924,
        0.025109291076660156
      ],
      "type": "VEC2"
    },
    {
      "bufferView": 0,
      "byteOffset": 5112,
      "componentType": 5125,
      "count": 36,
      "type": "SCALAR"
    },
    {
      "bufferView": 2,
      "byteOffset": 14496,
      "componentType": 5126,
      "count": 24,
      "max": [
        31.850000381469727,
        97.08378601074219,
        2.2779884338378906
      ],
      "min": [
        -31.850000381469727,
        -97.08378601074219,
        -2.2779884338378906
      ],
      "type": "VEC3"
    },
    {
      "bufferView": 2,
      "byteOffset": 14784,
      "componentType": 5126,
      "count": 24,
      "max": [
        1.0,
        1.0,
        1.0
      ],
      "min": [
        -1.0,
        -1.0,
        -1.0
      ],
      "type": "VEC3"
    },
    {
      "bufferView": 3,
      "byteOffset": 9664,
      "componentType": 5126,
      "count": 24,
      "max": [
        1.0,
        0.0,
        1.0,
        1.0
      ],
      "min": [
        -1.0,
        0.0,
        -1.0,
        1.0
      ],
      "type": "VEC4"
    },
    {
      "bufferView": 1,
      "byteOffset": 4832,
      "componentType": 5126,
      "count": 24,
      "max": [
        0.7995426654815674,
        0.9957307577133179
      ],
      "min": [
        0.3707374930381775,
        0.025109291076660156
      ],
      "type": "VEC2"
    },
    {
      "bufferView": 0,
      "byteOffset": 5256,
      "componentType": 5125,
      "count": 36,
      "type": "SCALAR"
    },
    {
      "bufferView": 2,
      "byteOffset": 15072,
      "componentType": 5126,
      "count": 580,
      "max": [
        90.0,
        110.0,
        10.886229515075684
      ],
      "min": [
        -90.0,
        -110.0,
        -10.886229515075684
      ],
      "type": "VEC3"
    },
    {
      "bufferView": 2,
      "byteOffset": 22032,
      "componentType": 5126,
      "count": 580,
      "max": [
        1.0,
        1.0,
        1.0
      ],
      "min": [
        -1.0,
        -1.0,
        -1.0
      ],
      "type": "VEC3"
    },
    {
      "bufferView": 3,
      "byteOffset": 10048,
      "componentType": 5126,
      "count": 580,
      "max": [
        1.0,
        0.9296279549598694,
        1.0,
        1.0
      ],
      "min": [
        -1.0,
        -1.0,
        -1.0,
        1.0
      ],
      "type": "VEC4"
    },
    {
      "bufferView": 1,
      "byteOffset": 5024,
      "componentType": 5126,
      "count": 580,
      "max": [
        0.9967578053474426,
        0.9957307577133179
      ],
      "min": [
        0.004269224125891924,
        0.004269242286682129
      ],
      "type": "VEC2"
    },
    {
      "bufferView": 0,
      "byteOffset": 5400,
      "componentType": 5125,
      "count": 1278,
      "type": "SCALAR"
    },
    {
      "bufferView": 2,
      "byteOffset": 28992,
      "componentType": 5126,
      "count": 24,
      "max": [
        37.602413177490234,
        97.08378601074219,
        2.2779884338378906
      ],
      "min": [
        -37.602413177490234,
        -97.08378601074219,
        -2.2779884338378906
      ],
      "type": "VEC3"
    },
    {
      "bufferView": 2,
      "byteOffset": 29280,
      "componentType": 5126,
      "count": 24,
      "max": [
        1.0,
        1.0,
        1.0
      ],
      "min": [
        -1.0,
        -1.0,
        -1.0
      ],
      "type": "VEC3"
    },
    {
      "bufferView": 3,
      "byteOffset": 19328,
      "componentType": 5126,
      "count": 24,
      "max": [
        1.0,
        0.0,
        1.0,
        1.0
      ],
      "min": [
        -1.0,
        0.0,
        -1.0,
        1.0
      ],
      "type": "VEC4"
    },
    {
      "bufferView": 1,
      "byteOffset": 9664,
      "componentType": 5126,
      "count": 24,
      "max": [
        0.7612993121147156,
        0.9957307577133179
      ],
      "min": [
        0.004269224125891924,
        0.025109291076660156
      ],
      "type": "VEC2"
    },
    {
      "bufferView": 0,
      "byteOffset": 10512,
      "componentType": 5125,
      "count": 36,
      "type": "SCALAR"
    },
    {
      "bufferView": 2,
      "byteOffset": 29568,
      "componentType": 5126,
      "count": 24,
      "max": [
        31.850000381469727,
        97.08378601074219,
        2.2779884338378906
      ],
      "min": [
        -31.850000381469727,
        -97.08378601074219,
        -2.2779884338378906
      ],
      "type": "VEC3"
    },
    {
      "bufferView": 2,
      "byteOffset": 29856,
      "componentType": 5126,
      "count": 24,
      "max": [
        1.0,
        1.0,
        1.0
      ],
      "min": [
        -1.0,
        -1.0,
        -1.0
      ],
      "type": "VEC3"
    },
    {
      "bufferView": 3,
      "byteOffset": 19712,
      "componentType": 5126,
      "count": 24,
      "max": [
        1.0,
        0.0,
        1.0,
        1.0
      ],
      "min": [
        -1.0,
        0.0,
        -1.0,
        1.0
      ],
      "type": "VEC4"
    },
    {
      "bufferView": 1,
      "byteOffset": 9856,
      "componentType": 5126,
      "count": 24,
      "max": [
        0.7995426654815674,
        0.9957307577133179
      ],
      "min": [
        0.3707374930381775,
        0.025109291076660156
      ],
      "type": "VEC2"
    },
    {
      "bufferView": 0,
      "byteOffset": 10656,
      "componentType": 5125,
      "count": 36,
      "type": "SCALAR"
    },
    {
      "bufferView": 4,
      "componentType": 5126,
      "count": 46,
      "max": [
        1.5
      ],
      "min": [
        0.0
      ],
      "type": "SCALAR"
    },
    {
      "bufferView": 5,
      "componentType": 5126,
      "count": 46,
      "max": [
        54.49449920654297,
        -54.29655838012695,
        5.925629615783691
      ],
      "min": [
        -83.09434509277344,
        -54.29655838012695,
        5.925629615783691
      ],
      "type": "VEC3"
    },
    {
      "bufferView": 4,
      "byteOffset": 184,
      "componentType": 5126,
      "count": 27,
      "max": [
        1.5
      ],
      "min": [
        0.0
      ],
      "type": "SCALAR"
    },
    {
      "bufferView": 5,
      "byteOffset": 552,
      "componentType": 5126,
      "count": 27,
      "max": [
        -9.2055025100708,
        -54.29655838012695,
        1.9529666900634766
      ],
      "min": [
        -80.41151428222656,
        -54.29655838012695,
        1.9529666900634766
      ],
      "type": "VEC3"
    }
  ],
  "animations": [
    {
      "channels": [
        {
          "sampler": 0,
          "target": {
            "node": 7,
            "path": "translation"
          }
        },
        {
          "sampler": 1,
          "target": {
            "node": 9,
            "path": "translation"
          }
        }
      ],
      "name": "01",
      "samplers": [
        {
          "input": 30,
          "interpolation": "LINEAR",
          "output": 31
        },
        {
          "input": 32,
          "interpolation": "LINEAR",
          "output": 33
        }
      ]
    }
  ],
  "asset": {
    "extras": {
      "author": "adventurer (https://sketchfab.com/ahmagh2e)",
      "license": "CC-BY-4.0 (http://creativecommons.org/licenses/by/4.0/)",
      "source": "https://sketchfab.com/3d-models/elevator-building-the-apartment-b5567955910b4c1aa0adcec8ca9d5beb",
      "title": "Elevator Building the apartment"
    },
    "generator": "Sketchfab-15.83.0",
    "version": "2.0"
  },
  "bufferViews": [
    {
      "buffer": 0,
      "byteLength": 10800,
      "name": "floatBufferViews",
      "target": 34963
    },
    {
      "buffer": 0,
      "byteLength": 10048,
      "byteOffset": 10800,
      "byteStride": 8,
      "name": "floatBufferViews",
      "target": 34962
    },
    {
      "buffer": 0,
      "byteLength": 30144,
      "byteOffset": 20848,
      "byteStride": 12,
      "name": "floatBufferViews",
      "target": 34962
    },
    {
      "buffer": 0,
      "byteLength": 20096,
      "byteOffset": 50992,
      "byteStride": 16,
      "name": "floatBufferViews",
      "target": 34962
    },
    {
      "buffer": 0,
      "byteLength": 292,
      "byteOffset": 71088,
      "name": "floatBufferViews"
    },
    {
      "buffer": 0,
      "byteLength": 876,
      "byteOffset": 71380,
      "byteStride": 12,
      "name": "floatBufferViews"
    }
  ],
  "buffers": [
    {
      "byteLength": 72256,
      "uri": "scene.bin"
    }
  ],
  "extensionsUsed": [
    "KHR_materials_emissive_strength",
    "KHR_materials_specular"
  ],
  "images": [
    {
      "uri": "textures/material_baseColor.png"
    },
    {
      "uri": "textures/material_metallicRoughness.png"
    },
    {
      "uri": "textures/material_emissive.png"
    },
    {
      "uri": "textures/material_normal.png"
    }
  ],
  "materials": [
    {
      "doubleSided": true,
      "emissiveFactor": [
        1.0,
        1.0,
        1.0
      ],
      "emissiveTexture": {
        "index": 2
      },
      "extensions": {
        "KHR_materials_emissive_strength": {
          "emissiveStrength": 10.0
        },
        "KHR_materials_specular": {
          "specularColorFactor": [
            1.0,
            1.0,
            1.0
          ],
          "specularFactor": 0.2118101693262303
        }
      },
      "name": "material",
      "normalTexture": {
        "index": 3
      },
      "pbrMetallicRoughness": {
        "baseColorTexture": {
          "index": 0
        },
        "metallicRoughnessTexture": {
          "index": 1
        },
        "roughnessFactor": 0.8822884031646572
      }
    }
  ],
  "meshes": [
    {
      "name": "Cube_4_all_0",
      "primitives": [
        {
          "attributes": {
            "NORMAL": 1,
            "POSITION": 0,
            "TANGENT": 2,
            "TEXCOORD_0": 3
          },
          "indices": 4,
          "material": 0,
          "mode": 4
        }
      ]
    },
    {
      "name": "R_all_0",
      "primitives": [
        {
          "attributes": {
            "NORMAL": 6,
            "POSITION": 5,
            "TANGENT": 7,
            "TEXCOORD_0": 8
          },
          "indices": 9,
          "material": 0,
          "mode": 4
        }
      ]
    },
    {
      "name": "L_all_0",
      "primitives": [
        {
          "attributes": {
            "NORMAL": 11,
            "POSITION": 10,
            "TANGENT": 12,
            "TEXCOORD_0": 13
          },
          "indices": 14,
          "material": 0,
          "mode": 4
        }
      ]
    },
    {
      "name": "Cube_4_2_all_0",
      "primitives": [
        {
          "attributes": {
            "NORMAL": 16,
            "POSITION": 15,
            "TANGENT": 17,
            "TEXCOORD_0": 18
          },
          "indices": 19,
          "material": 0,
          "mode": 4
        }
      ]
    },
    {
      "name": "R_2_all_0",
      "primitives": [
        {
          "attributes": {
            "NORMAL": 21,
            "POSITION": 20,
            "TANGENT": 22,
            "TEXCOORD_0": 23
          },
          "indices": 24,
          "material": 0,
          "mode": 4
        }
      ]
    },
    {
      "name": "L_2_all_0",
      "primitives": [
        {
          "attributes": {
            "NORMAL": 26,
            "POSITION": 25,
            "TANGENT": 27,
            "TEXCOORD_0": 28
          },
          "indices": 29,
          "material": 0,
          "mode": 4
        }
      ]
    }
  ],
  "nodes": [
    {
      "children": [
        1
      ],
      "matrix": [
        1.0,
        0.0,
        0.0,
        0.0,
        0.0,
        2.220446049250313e-16,
        -1.0,
        0.0,
        0.0,
        1.0,
        2.220446049250313e-16,
        0.0,
        0.0,
        0.0,
        0.0,
        1.0
      ],
      "name": "Sketchfab_model"
    },
    {
      "children": [
        2
      ],
      "matrix": [
        0.009999999776482582,
        0.0,
        0.0,
        0.0,
        0.0,
        0.0,
        0.009999999776482582,
        0.0,
        0.0,
        -0.009999999776482582,
        0.0,
        0.0,
        0.0,
        0.0,
        0.0,
        1.0
      ],
      "name": "59393f4e170f4064a2b3006738ee27f0.fbx"
    },
    {
      "children": [
        3
      ],
      "name": "Object_2"
    },
    {
      "children": [
        4,
        11
      ],
      "name": "RootNode"
    },
    {
      "children": [
        5,
        7,
        9
      ],
      "name": "01",
      "translation": [
        -22.64449691772461,
        154.9438934326172,
        -4.0427680015563965
      ]
    },
    {
      "children": [
        6
      ],
      "name": "Cube_4",
      "translation": [
        22.64449691772461,
        -44.94388961791992,
        3.156538248062134
      ]
    },
    {
      "mesh": 0,
      "name": "Cube_4_all_0"
    },
    {
      "children": [
        8
      ],
      "name": "R",
      "translation": [
        54.49449920654297,
        -54.29655838012695,
        5.925629615783691
      ]
    },
    {
      "mesh": 1,
      "name": "R_all_0"
    },
    {
      "children": [
        10
      ],
      "name": "L",
      "translation": [
        -9.2055025100708,
        -54.29655838012695,
        1.9529666900634766
      ]
    },
    {
      "mesh": 2,
      "name": "L_all_0"
    },
    {
      "children": [
        12,
        14,
        16
      ],
      "name": "01_1",
      "rotation": [
        -0.0,
        -0.7071068286895752,
        0.0,
        0.7071068286895752
      ],
      "translation": [
        -96.02967071533203,
        154.62118530273438,
        -123.24174499511719
      ]
    },
    {
      "children": [
        13
      ],
      "name": "Cube_4_2",
      "translation": [
        22.64449691772461,
        -44.94388961791992,
        3.156538248062134
      ]
    },
    {
      "mesh": 3,
      "name": "Cube_4_2_all_0"
    },
    {
      "children": [
        15
      ],
      "name": "R_2",
      "translation": [
        54.49449920654297,
        -54.29655838012695,
        5.925629615783691
      ]
    },
    {
      "mesh": 4,
      "name": "R_2_all_0"
    },
    {
      "children": [
        17
      ],
      "name": "L_2",
      "translation": [
        -9.2055025100708,
        -54.29655838012695,
        1.9529666900634766
      ]
    },
    {
      "mesh": 5,
      "name": "L_2_all_0"
    }
  ],
  "samplers": [
    {
      "magFilter": 9729,
      "minFilter": 9987,
      "wrapS": 10497,
      "wrapT": 10497
    }
  ],
  "scene": 0,
  "scenes": [
    {
      "name": "Sketchfab_Scene",
      "nodes": [
        0
      ]
    }
  ],
  "textures": [
    {
      "sampler": 0,
      "source": 0
    },
    {
      "sampler": 0,
      "source": 1
    },
    {
      "sampler": 0,
      "source": 2
    },
    {
      "sampler": 0,
      "source": 3
    }
  ]
}
