{
  "accessors": [
    {
      "bufferView": 2,
      "componentType": 5126,
      "count": 9941,
      "max": [
        0.04359624162316322,
        0.5572351813316345,
        0.040314190089702606
      ],
      "min": [
        -0.1582449972629547,
        -0.5485532879829407,
        -0.028485070914030075
      ],
      "type": "VEC3"
    },
    {
      "bufferView": 2,
      "byteOffset": 119292,
      "componentType": 5126,
      "count": 9941,
      "max": [
        0.9999526143074036,
        0.9998643398284912,
        0.9999980926513672
      ],
      "min": [
        -0.9999987483024597,
        -0.9991054534912109,
        -0.9999988675117493
      ],
      "type": "VEC3"
    },
    {
      "bufferView": 1,
      "componentType": 5126,
      "count": 9941,
      "max": [
        0.9951199889183044,
        0.9960899949073792
      ],
      "min": [
        0.0038999998942017555,
        0.0038999998942017555
      ],
      "type": "VEC2"
    },
    {
      "bufferView": 0,
      "componentType": 5125,
      "count": 51936,
      "type": "SCALAR"
    },
    {
      "bufferView": 2,
      "byteOffset": 238584,
      "componentType": 5126,
      "count": 813,
      "max": [
        0.041915010660886765,
        0.549903929233551,
        0.03327089175581932
      ],
      "min": [
        -0.08119557052850723,
        0.23361000418663025,
        -0.02007170021533966
      ],
      "type": "VEC3"
    },
    {
      "bufferView": 2,
      "byteOffset": 248340,
      "componentType": 5126,
      "count": 813,
      "max": [
        0.9826268553733826,
        0.9991641044616699,
        0.9999603629112244
      ],
      "min": [
        -0.9099292159080505,
        -0.9719952344894409,
        -0.9999932646751404
      ],
      "type": "VEC3"
    },
    {
      "bufferView": 1,
      "byteOffset": 79528,
      "componentType": 5126,
      "count": 813,
      "max": [
        0.9872699975967407,
        0.9762899875640869
      ],
      "min": [
        0.20871999859809875,
        0.0038999998942017555
      ],
      "type": "VEC2"
    },
    {
      "bufferView": 0,
      "byteOffset": 207744,
      "componentType": 5125,
      "count": 3936,
      "type": "SCALAR"
    }
  ],
  "asset": {
    "extras": {
      "author": "Firefighter Vision (https://sketchfab.com/firefightervision)",
      "license": "CC-BY-NC-4.0 (http://creativecommons.org/licenses/by-nc/4.0/)",
      "source": "https://sketchfab.com/3d-models/firefighter-vision-heavy-duty-bolt-cutter-dfe2d99d83554dc89893d97fe45b3562",
      "title": "Firefighter Vision: Heavy Duty Bolt Cutter"
    },
    "generator": "Sketchfab-15.83.0",
    "version": "2.0"
  },
  "bufferViews": [
    {
      "buffer": 0,
      "byteLength": 223488,
      "name": "floatBufferViews",
      "target": 34963
    },
    {
      "buffer": 0,
      "byteLength": 86032,
      "byteOffset": 223488,
      "byteStride": 8,
      "name": "floatBufferViews",
      "target": 34962
    },
    {
      "buffer": 0,
      "byteLength": 258096,
      "byteOffset": 309520,
      "byteStride": 12,
      "name": "floatBufferViews",
      "target": 34962
    }
  ],
  "buffers": [
    {
      "byteLength": 567616,
      "uri": "scene.bin"
    }
  ],
  "images": [
    {
      "uri": "textures/defaultMat_baseColor.png"
    }
  ],
  "materials": [
    {
      "doubleSided": true,
      "name": "defaultMat",
      "pbrMetallicRoughness": {
        "baseColorTexture": {
          "index": 0
        },
        "metallicFactor": 0.0,
        "roughnessFactor": 0.6
      }
    }
  ],
  "meshes": [
    {
      "name": "Object_0",
      "primitives": [
        {
          "attributes": {
            "NORMAL": 1,
            "POSITION": 0,
            "TEXCOORD_0": 2
          },
          "indices": 3,
          "material": 0,
          "mode": 4
        }
      ]
    },
    {
      "name": "Object_1",
      "primitives": [
        {
          "attributes": {
            "NORMAL": 5,
            "POSITION": 4,
            "TEXCOORD_0": 6
          },
          "indices": 7,
          "material": 0,
          "mode": 4
        }
      ]
    }
  ],
  "nodes": [
    {
      "children": [
        1
      ],
      "matrix": [
        -0.06573502719402313,
        0.9978371262550354,
        -4.802544462033874e-19,
        0.0,
        -0.9978371262550354,
        -0.06573502719402313,
        4.2949310170702956e-16,
        0.0,
        2.220446049250313e-16,
        -1.1102230246251565e-16,
        1.0,
        0.0,
        0.0,
        0.0,
        0.0,
        1.0
      ],
      "name": "Sketchfab_model"
    },
    {
      "children": [
        2,
        3
      ],
      "name": "FFV_PolyCam_C1_HeavyDutyWireRopeCutter.obj.cleaner.materialmerger.gles"
    },
    {
      "mesh": 0,
      "name": "Object_2"
    },
    {
      "mesh": 1,
      "name": "Object_3"
    }
  ],
  "samplers": [
    {
      "magFilter": 9729,
      "minFilter": 9987,
      "wrapS": 10497,
      "wrapT": 10497
    }
  ],
  "scene": 0,
  "scenes": [
    {
      "name": "Sketchfab_Scene",
      "nodes": [
        0
      ]
    }
  ],
  "textures": [
    {
      "sampler": 0,
      "source": 0
    }
  ]
}
